<svg xmlns="http://www.w3.org/2000/svg" width="168" height="180" viewBox="0 0 168 180" fill="none">
<path d="M134.893 116.984L134.893 55.9436C134.893 52.1185 132.042 49 128.51 49H39.7289C36.1962 49 33.3457 52.0942 33.3457 55.9436V116.984" stroke="#FF7100" stroke-width="1.86416"/>
<path d="M41.873 108.073H126.341V61.1379C126.341 59.1889 124.758 57.6052 122.809 57.6052H45.4301C43.481 57.6052 41.8974 59.1889 41.8974 61.1379L41.8731 105.675L41.873 108.073Z" stroke="#FF7100" stroke-width="1.86416"/>
<path d="M139.31 116.965C139.777 116.965 140.158 117.345 140.134 117.811C139.755 125.36 134.331 131.34 127.706 131.34H40.5332C33.9084 131.34 28.4842 125.36 28.1047 117.811C28.0812 117.345 28.4622 116.965 28.9294 116.965H73.6778C73.9998 116.965 74.2938 117.148 74.4363 117.437L76.7727 122.171C76.9152 122.459 77.2093 122.642 77.5312 122.642H90.6835C91.0055 122.642 91.2996 122.459 91.4421 122.171L93.7784 117.437C93.9209 117.148 94.215 116.965 94.537 116.965H139.31Z" stroke="#FF7100" stroke-width="1.86416"/>
<path d="M53.46 71.8394H99.1386" stroke="#FF7100" stroke-width="1.86416" stroke-linecap="round"/>
<path d="M53.46 83.259H99.1386" stroke="#FF7100" stroke-width="1.86416" stroke-linecap="round"/>
<path d="M53.46 95.1016H99.1386" stroke="#FF7100" stroke-width="1.86416" stroke-linecap="round"/>
<rect x="106.752" y="68.0327" width="7.61311" height="7.61311" rx="2.5377" stroke="#FF7100" stroke-width="1.86416"/>
<rect x="106.752" y="79.8755" width="7.61311" height="7.61311" rx="2.5377" stroke="#FF7100" stroke-width="1.86416"/>
<rect x="106.752" y="91.718" width="7.61311" height="7.61311" rx="2.5377" stroke="#FF7100" stroke-width="1.86416"/>
<script xmlns=""/></svg>