<svg width="175" height="75" viewBox="0 0 175 75" fill="none" xmlns="http://www.w3.org/2000/svg">
<path d="M54 18.6818H37.0909C37.1818 17.5909 36.9886 16.6591 36.5114 15.8864C36.0341 15.1136 35.3636 14.5227 34.5 14.1136C33.6591 13.7045 32.7045 13.5 31.6364 13.5C29.7727 13.5 28.0795 13.9205 26.5568 14.7614C25.0341 15.5795 24.1818 16.6591 24 18C23.8864 18.5227 24.0568 19.0114 24.5114 19.4659C24.9659 19.9205 26.1591 20.3409 28.0909 20.7273L38.4545 22.6364C43.6364 23.5909 47.4091 25.3295 49.7727 27.8523C52.1591 30.3523 53.0227 33.6591 52.3636 37.7727C51.75 41.3409 50.1818 44.4091 47.6591 46.9773C45.1364 49.5455 41.9318 51.5227 38.0455 52.9091C34.1818 54.2727 29.9091 54.9545 25.2273 54.9545C16.9773 54.9545 10.7955 53.3068 6.68182 50.0114C2.59091 46.7159 0.727273 42.4091 1.09091 37.0909H19.3636C19.4091 38.7955 19.9773 40.0795 21.0682 40.9432C22.1818 41.7841 23.6591 42.2273 25.5 42.2727C27.5 42.3409 29.25 41.9432 30.75 41.0795C32.25 40.1932 33.0909 39.0909 33.2727 37.7727C33.3409 37.0227 33.0114 36.4545 32.2841 36.0682C31.5795 35.6818 30.2273 35.2955 28.2273 34.9091L19.2273 33.2727C14.0455 32.3409 10.2727 30.4773 7.90909 27.6818C5.54545 24.8636 4.72727 21.2727 5.45455 16.9091C6.04545 13.4318 7.45455 10.5114 9.68182 8.14773C11.9318 5.78409 14.8864 4 18.5455 2.79545C22.2045 1.56818 26.4318 0.954546 31.2273 0.954546C39.0682 0.954546 45 2.53409 49.0227 5.69318C53.0682 8.82954 54.7273 13.1591 54 18.6818ZM118.347 1.63636L92.0284 54H70.2102L61.3466 1.63636H80.4375L83.1648 36.2727H83.7102L97.892 1.63636H118.347ZM135.332 74.7273C130.06 74.7273 125.673 73.9773 122.173 72.4773C118.696 71 116.128 68.9545 114.469 66.3409C112.832 63.75 112.151 60.7727 112.423 57.4091H130.56C130.605 58.5455 130.935 59.4545 131.548 60.1364C132.162 60.8182 133.014 61.3068 134.105 61.6023C135.196 61.8977 136.469 62.0455 137.923 62.0455C140.378 62.0455 142.503 61.4432 144.298 60.2386C146.094 59.0568 147.196 56.9318 147.605 53.8636L149.105 45H148.56C147.605 46.7727 146.321 48.2841 144.707 49.5341C143.094 50.7614 141.241 51.7045 139.151 52.3636C137.06 53 134.832 53.3182 132.469 53.3182C128.741 53.3182 125.457 52.4545 122.616 50.7273C119.798 49 117.753 46.2614 116.48 42.5114C115.23 38.7614 115.105 33.8636 116.105 27.8182C117.151 21.5 118.991 16.3636 121.628 12.4091C124.264 8.45454 127.298 5.55682 130.73 3.71591C134.162 1.875 137.605 0.954546 141.06 0.954546C143.651 0.954546 145.844 1.40909 147.639 2.31818C149.435 3.20454 150.866 4.39772 151.935 5.89772C153.003 7.375 153.741 9 154.151 10.7727H154.56L156.06 1.63636H174.878L166.151 53.8636C165.469 58.3182 163.73 62.0909 160.935 65.1818C158.162 68.2955 154.571 70.6591 150.162 72.2727C145.776 73.9091 140.832 74.7273 135.332 74.7273ZM141.605 39.9545C143.332 39.9545 144.901 39.4773 146.31 38.5227C147.719 37.5455 148.912 36.1591 149.889 34.3636C150.866 32.5455 151.56 30.3636 151.969 27.8182C152.378 25.2273 152.401 23.0114 152.037 21.1705C151.673 19.3068 150.957 17.8864 149.889 16.9091C148.821 15.9091 147.423 15.4091 145.696 15.4091C143.969 15.4091 142.412 15.9091 141.026 16.9091C139.639 17.8864 138.469 19.3068 137.514 21.1705C136.56 23.0114 135.878 25.2273 135.469 27.8182C135.06 30.4091 135.026 32.6136 135.366 34.4318C135.707 36.2273 136.401 37.6023 137.446 38.5568C138.491 39.4886 139.878 39.9545 141.605 39.9545Z" fill="black"/>
</svg>
